# This file uses feet as units for non-parametric coordinates.

mtllib ball1.mtl
g default
v -7.761111 -7.761111 7.761111
v 7.761111 -7.761111 7.761111
v -7.761111 7.761111 7.761111
v 7.761111 7.761111 7.761111
v -7.761111 7.761111 -7.761111
v 7.761111 7.761111 -7.761111
v -7.761111 -7.761111 -7.761111
v 7.761111 -7.761111 -7.761111
v 0.000000 -9.802813 9.802813
v 0.000000 9.802813 9.802813
v 0.000000 9.802813 -9.802813
v 0.000000 -9.802813 -9.802813
v -9.802813 0.000000 9.802813
v 9.802813 0.000000 9.802813
v -9.802813 9.802813 0.000000
v 9.802813 9.802813 0.000000
v -9.802813 0.000000 -9.802813
v 9.802813 0.000000 -9.802813
v -9.802813 -9.802813 0.000000
v 9.802813 -9.802813 0.000000
v 0.000000 0.000000 13.387917
v 0.000000 13.387917 0.000000
v 0.000000 0.000000 -13.387917
v 0.000000 -13.387917 0.000000
v 13.387917 0.000000 0.000000
v -13.387917 0.000000 0.000000
v -4.603750 -9.128125 9.128125
v 4.603750 -9.128125 9.128125
v -4.603750 9.128125 9.128125
v 4.603750 9.128125 9.128125
v -4.603750 9.128125 -9.128125
v 4.603750 9.128125 -9.128125
v -4.603750 -9.128125 -9.128125
v 4.603750 -9.128125 -9.128125
v -9.128125 -4.603750 9.128125
v -9.128125 4.603750 9.128125
v 9.128125 -4.603750 9.128125
v 9.128125 4.603750 9.128125
v -9.128125 9.128125 4.603750
v -9.128125 9.128125 -4.603750
v 9.128125 9.128125 4.603750
v 9.128125 9.128125 -4.603750
v -9.128125 4.603750 -9.128125
v -9.128125 -4.603750 -9.128125
v 9.128125 4.603750 -9.128125
v 9.128125 -4.603750 -9.128125
v -9.128125 -9.128125 -4.603750
v -9.128125 -9.128125 4.603750
v 9.128125 -9.128125 -4.603750
v 9.128125 -9.128125 4.603750
v 0.000000 -5.344584 12.488334
v 5.344584 0.000000 12.488334
v 0.000000 5.344584 12.488334
v -5.344584 0.000000 12.488334
v 0.000000 12.488334 5.344584
v 5.344584 12.488334 0.000000
v 0.000000 12.488334 -5.344584
v -5.344584 12.488334 0.000000
v 0.000000 5.344584 -12.488334
v 5.344584 0.000000 -12.488334
v 0.000000 -5.344584 -12.488334
v -5.344584 0.000000 -12.488334
v 0.000000 -12.488334 -5.344584
v 5.344584 -12.488334 0.000000
v 0.000000 -12.488334 5.344584
v -5.344584 -12.488334 0.000000
v 12.488334 -5.344584 0.000000
v 12.488334 0.000000 -5.344584
v 12.488334 5.344584 0.000000
v 12.488334 0.000000 5.344584
v -12.488334 -5.344584 0.000000
v -12.488334 0.000000 5.344584
v -12.488334 5.344584 0.000000
v -12.488334 0.000000 -5.344584
v 4.974167 -4.974167 11.641666
v 4.974167 4.974167 11.641666
v -4.974167 4.974167 11.641666
v -4.974167 -4.974167 11.641666
v 4.974167 11.641666 4.974167
v 4.974167 11.641666 -4.974167
v -4.974167 11.641666 -4.974167
v -4.974167 11.641666 4.974167
v 4.974167 4.974167 -11.641666
v 4.974167 -4.974167 -11.641666
v -4.974167 -4.974167 -11.641666
v -4.974167 4.974167 -11.641666
v 4.974167 -11.641666 -4.974167
v 4.974167 -11.641666 4.974167
v -4.974167 -11.641666 4.974167
v -4.974167 -11.641666 -4.974167
v 11.641666 -4.974167 -4.974167
v 11.641666 4.974167 -4.974167
v 11.641666 4.974167 4.974167
v 11.641666 -4.974167 4.974167
v -11.641666 -4.974167 4.974167
v -11.641666 4.974167 4.974167
v -11.641666 4.974167 -4.974167
v -11.641666 -4.974167 -4.974167
vt 0.375000 0.000000
vt 0.625000 0.000000
vt 0.375000 0.250000
vt 0.625000 0.250000
vt 0.375000 0.500000
vt 0.625000 0.500000
vt 0.375000 0.750000
vt 0.625000 0.750000
vt 0.375000 1.000000
vt 0.625000 1.000000
vt 0.875000 0.000000
vt 0.875000 0.250000
vt 0.125000 0.000000
vt 0.125000 0.250000
vt 0.500000 0.125000
vt 0.500000 0.375000
vt 0.500000 0.625000
vt 0.500000 0.875000
vt 0.750000 0.125000
vt 0.250000 0.125000
vt 0.500000 0.000000
vt 0.625000 0.125000
vt 0.500000 0.250000
vt 0.375000 0.125000
vt 0.625000 0.375000
vt 0.500000 0.500000
vt 0.375000 0.375000
vt 0.625000 0.625000
vt 0.500000 0.750000
vt 0.375000 0.625000
vt 0.625000 0.875000
vt 0.500000 1.000000
vt 0.375000 0.875000
vt 0.750000 0.000000
vt 0.875000 0.125000
vt 0.750000 0.250000
vt 0.250000 0.000000
vt 0.250000 0.250000
vt 0.125000 0.125000
vt 0.562500 0.062500
vt 0.562500 0.187500
vt 0.437500 0.187500
vt 0.437500 0.062500
vt 0.562500 0.312500
vt 0.562500 0.437500
vt 0.437500 0.437500
vt 0.437500 0.312500
vt 0.562500 0.562500
vt 0.562500 0.687500
vt 0.437500 0.687500
vt 0.437500 0.562500
vt 0.562500 0.812500
vt 0.562500 0.937500
vt 0.437500 0.937500
vt 0.437500 0.812500
vt 0.812500 0.062500
vt 0.812500 0.187500
vt 0.687500 0.187500
vt 0.687500 0.062500
vt 0.312500 0.062500
vt 0.312500 0.187500
vt 0.187500 0.187500
vt 0.187500 0.062500
vt 0.562500 0.000000
vt 0.625000 0.062500
vt 0.562500 0.125000
vt 0.500000 0.062500
vt 0.625000 0.187500
vt 0.562500 0.250000
vt 0.500000 0.187500
vt 0.437500 0.250000
vt 0.375000 0.187500
vt 0.437500 0.125000
vt 0.375000 0.062500
vt 0.437500 0.000000
vt 0.625000 0.312500
vt 0.562500 0.375000
vt 0.500000 0.312500
vt 0.625000 0.437500
vt 0.562500 0.500000
vt 0.500000 0.437500
vt 0.437500 0.500000
vt 0.375000 0.437500
vt 0.437500 0.375000
vt 0.375000 0.312500
vt 0.625000 0.562500
vt 0.562500 0.625000
vt 0.500000 0.562500
vt 0.625000 0.687500
vt 0.562500 0.750000
vt 0.500000 0.687500
vt 0.437500 0.750000
vt 0.375000 0.687500
vt 0.437500 0.625000
vt 0.375000 0.562500
vt 0.625000 0.812500
vt 0.562500 0.875000
vt 0.500000 0.812500
vt 0.625000 0.937500
vt 0.562500 1.000000
vt 0.500000 0.937500
vt 0.437500 1.000000
vt 0.375000 0.937500
vt 0.437500 0.875000
vt 0.375000 0.812500
vt 0.812500 0.000000
vt 0.875000 0.062500
vt 0.812500 0.125000
vt 0.750000 0.062500
vt 0.875000 0.187500
vt 0.812500 0.250000
vt 0.750000 0.187500
vt 0.687500 0.250000
vt 0.687500 0.125000
vt 0.687500 0.000000
vt 0.312500 0.000000
vt 0.312500 0.125000
vt 0.250000 0.062500
vt 0.312500 0.250000
vt 0.250000 0.187500
vt 0.187500 0.250000
vt 0.125000 0.187500
vt 0.187500 0.125000
vt 0.125000 0.062500
vt 0.187500 0.000000
vn 0.313219 -0.671526 0.671526
vn 0.577350 -0.577350 0.577350
vn 0.671526 -0.313219 0.671526
vn 0.329322 -0.329322 0.884926
vn 0.707107 0.000000 0.707107
vn 0.345160 -0.000000 0.938544
vn 0.000000 0.000000 1.000000
vn -0.000000 -0.345160 0.938544
vn -0.000000 -0.707107 0.707107
vn 0.671526 0.313220 0.671526
vn 0.577350 0.577350 0.577350
vn 0.313220 0.671526 0.671526
vn 0.329322 0.329322 0.884926
vn 0.000000 0.707107 0.707107
vn 0.000000 0.345160 0.938544
vn -0.313219 0.671526 0.671526
vn -0.577350 0.577350 0.577350
vn -0.671526 0.313219 0.671526
vn -0.329322 0.329322 0.884926
vn -0.707107 -0.000000 0.707107
vn -0.345160 0.000000 0.938544
vn -0.671526 -0.313220 0.671526
vn -0.577350 -0.577350 0.577350
vn -0.313220 -0.671526 0.671526
vn -0.329322 -0.329322 0.884926
vn 0.671526 0.671526 0.313220
vn 0.329322 0.884926 0.329322
vn 0.707107 0.707107 0.000000
vn 0.345160 0.938544 0.000000
vn 0.000000 1.000000 0.000000
vn -0.000000 0.938544 0.345160
vn 0.671526 0.671526 -0.313219
vn 0.577350 0.577350 -0.577350
vn 0.313219 0.671526 -0.671526
vn 0.329322 0.884926 -0.329322
vn -0.000000 0.707107 -0.707107
vn 0.000000 0.938544 -0.345160
vn -0.313220 0.671526 -0.671526
vn -0.577350 0.577350 -0.577350
vn -0.671526 0.671526 -0.313220
vn -0.329322 0.884926 -0.329322
vn -0.707107 0.707107 -0.000000
vn -0.345160 0.938544 -0.000000
vn -0.671526 0.671526 0.313219
vn -0.329322 0.884926 0.329322
vn 0.671526 0.313219 -0.671526
vn 0.329322 0.329322 -0.884926
vn 0.707107 -0.000000 -0.707107
vn 0.345160 0.000000 -0.938544
vn 0.000000 0.000000 -1.000000
vn -0.000000 0.345160 -0.938544
vn 0.671526 -0.313220 -0.671526
vn 0.577350 -0.577350 -0.577350
vn 0.313220 -0.671526 -0.671526
vn 0.329322 -0.329322 -0.884926
vn 0.000000 -0.707107 -0.707107
vn 0.000000 -0.345160 -0.938544
vn -0.313219 -0.671526 -0.671526
vn -0.577350 -0.577350 -0.577350
vn -0.671526 -0.313219 -0.671526
vn -0.329322 -0.329322 -0.884926
vn -0.707107 0.000000 -0.707107
vn -0.345160 -0.000000 -0.938544
vn -0.671526 0.313220 -0.671526
vn -0.329322 0.329322 -0.884926
vn 0.671526 -0.671526 -0.313220
vn 0.329322 -0.884926 -0.329322
vn 0.707107 -0.707107 -0.000000
vn 0.345160 -0.938544 -0.000000
vn 0.000000 -1.000000 0.000000
vn -0.000000 -0.938544 -0.345160
vn 0.671526 -0.671526 0.313219
vn 0.329322 -0.884926 0.329322
vn 0.000000 -0.938544 0.345160
vn -0.671526 -0.671526 0.313220
vn -0.329322 -0.884926 0.329322
vn -0.707107 -0.707107 0.000000
vn -0.345160 -0.938544 0.000000
vn -0.671526 -0.671526 -0.313219
vn -0.329322 -0.884926 -0.329322
vn 0.884926 -0.329322 -0.329322
vn 0.938544 -0.000000 -0.345160
vn 1.000000 0.000000 0.000000
vn 0.938544 -0.345160 0.000000
vn 0.884926 0.329322 -0.329322
vn 0.938544 0.345160 -0.000000
vn 0.884926 0.329322 0.329322
vn 0.938544 0.000000 0.345160
vn 0.884926 -0.329322 0.329322
vn -0.884926 -0.329322 0.329322
vn -0.938544 -0.000000 0.345160
vn -1.000000 0.000000 0.000000
vn -0.938544 -0.345160 -0.000000
vn -0.884926 0.329322 0.329322
vn -0.938544 0.345160 0.000000
vn -0.884926 0.329322 -0.329322
vn -0.938544 0.000000 -0.345160
vn -0.884926 -0.329322 -0.329322
s 1
g pCube1
usemtl initialShadingGroup
f 28/64/1 2/2/2 37/65/3 75/40/4
f 37/65/3 14/22/5 52/66/6 75/40/4
f 52/66/6 21/15/7 51/67/8 75/40/4
f 51/67/8 9/21/9 28/64/1 75/40/4
f 38/68/10 4/4/11 30/69/12 76/41/13
f 30/69/12 10/23/14 53/70/15 76/41/13
f 53/70/15 21/15/7 52/66/6 76/41/13
f 52/66/6 14/22/5 38/68/10 76/41/13
f 29/71/16 3/3/17 36/72/18 77/42/19
f 36/72/18 13/24/20 54/73/21 77/42/19
f 54/73/21 21/15/7 53/70/15 77/42/19
f 53/70/15 10/23/14 29/71/16 77/42/19
f 35/74/22 1/1/23 27/75/24 78/43/25
f 27/75/24 9/21/9 51/67/8 78/43/25
f 51/67/8 21/15/7 54/73/21 78/43/25
f 54/73/21 13/24/20 35/74/22 78/43/25
f 30/69/12 4/4/11 41/76/26 79/44/27
f 41/76/26 16/25/28 56/77/29 79/44/27
f 56/77/29 22/16/30 55/78/31 79/44/27
f 55/78/31 10/23/14 30/69/12 79/44/27
f 42/79/32 6/6/33 32/80/34 80/45/35
f 32/80/34 11/26/36 57/81/37 80/45/35
f 57/81/37 22/16/30 56/77/29 80/45/35
f 56/77/29 16/25/28 42/79/32 80/45/35
f 31/82/38 5/5/39 40/83/40 81/46/41
f 40/83/40 15/27/42 58/84/43 81/46/41
f 58/84/43 22/16/30 57/81/37 81/46/41
f 57/81/37 11/26/36 31/82/38 81/46/41
f 39/85/44 3/3/17 29/71/16 82/47/45
f 29/71/16 10/23/14 55/78/31 82/47/45
f 55/78/31 22/16/30 58/84/43 82/47/45
f 58/84/43 15/27/42 39/85/44 82/47/45
f 32/80/34 6/6/33 45/86/46 83/48/47
f 45/86/46 18/28/48 60/87/49 83/48/47
f 60/87/49 23/17/50 59/88/51 83/48/47
f 59/88/51 11/26/36 32/80/34 83/48/47
f 46/89/52 8/8/53 34/90/54 84/49/55
f 34/90/54 12/29/56 61/91/57 84/49/55
f 61/91/57 23/17/50 60/87/49 84/49/55
f 60/87/49 18/28/48 46/89/52 84/49/55
f 33/92/58 7/7/59 44/93/60 85/50/61
f 44/93/60 17/30/62 62/94/63 85/50/61
f 62/94/63 23/17/50 61/91/57 85/50/61
f 61/91/57 12/29/56 33/92/58 85/50/61
f 43/95/64 5/5/39 31/82/38 86/51/65
f 31/82/38 11/26/36 59/88/51 86/51/65
f 59/88/51 23/17/50 62/94/63 86/51/65
f 62/94/63 17/30/62 43/95/64 86/51/65
f 34/90/54 8/8/53 49/96/66 87/52/67
f 49/96/66 20/31/68 64/97/69 87/52/67
f 64/97/69 24/18/70 63/98/71 87/52/67
f 63/98/71 12/29/56 34/90/54 87/52/67
f 50/99/72 2/10/2 28/100/1 88/53/73
f 28/100/1 9/32/9 65/101/74 88/53/73
f 65/101/74 24/18/70 64/97/69 88/53/73
f 64/97/69 20/31/68 50/99/72 88/53/73
f 27/102/24 1/9/23 48/103/75 89/54/76
f 48/103/75 19/33/77 66/104/78 89/54/76
f 66/104/78 24/18/70 65/101/74 89/54/76
f 65/101/74 9/32/9 27/102/24 89/54/76
f 47/105/79 7/7/59 33/92/58 90/55/80
f 33/92/58 12/29/56 63/98/71 90/55/80
f 63/98/71 24/18/70 66/104/78 90/55/80
f 66/104/78 19/33/77 47/105/79 90/55/80
f 49/106/66 8/11/53 46/107/52 91/56/81
f 46/107/52 18/35/48 68/108/82 91/56/81
f 68/108/82 25/19/83 67/109/84 91/56/81
f 67/109/84 20/34/68 49/106/66 91/56/81
f 45/110/46 6/12/33 42/111/32 92/57/85
f 42/111/32 16/36/28 69/112/86 92/57/85
f 69/112/86 25/19/83 68/108/82 92/57/85
f 68/108/82 18/35/48 45/110/46 92/57/85
f 41/113/26 4/4/11 38/68/10 93/58/87
f 38/68/10 14/22/5 70/114/88 93/58/87
f 70/114/88 25/19/83 69/112/86 93/58/87
f 69/112/86 16/36/28 41/113/26 93/58/87
f 37/65/3 2/2/2 50/115/72 94/59/89
f 50/115/72 20/34/68 67/109/84 94/59/89
f 67/109/84 25/19/83 70/114/88 94/59/89
f 70/114/88 14/22/5 37/65/3 94/59/89
f 48/116/75 1/1/23 35/74/22 95/60/90
f 35/74/22 13/24/20 72/117/91 95/60/90
f 72/117/91 26/20/92 71/118/93 95/60/90
f 71/118/93 19/37/77 48/116/75 95/60/90
f 36/72/18 3/3/17 39/119/44 96/61/94
f 39/119/44 15/38/42 73/120/95 96/61/94
f 73/120/95 26/20/92 72/117/91 96/61/94
f 72/117/91 13/24/20 36/72/18 96/61/94
f 40/121/40 5/14/39 43/122/64 97/62/96
f 43/122/64 17/39/62 74/123/97 97/62/96
f 74/123/97 26/20/92 73/120/95 97/62/96
f 73/120/95 15/38/42 40/121/40 97/62/96
f 44/124/60 7/13/59 47/125/79 98/63/98
f 47/125/79 19/37/77 71/118/93 98/63/98
f 71/118/93 26/20/92 74/123/97 98/63/98
f 74/123/97 17/39/62 44/124/60 98/63/98
