# This file uses feet as units for non-parametric coordinates.

mtllib islando3.mtl
g default
v 31.745401 -11.237864 -74.034348
v -14.180737 -11.237864 -95.000122
v -68.425812 -11.237864 -48.956623
v -73.396439 -11.237864 42.817333
v -19.569777 -11.237864 98.871422
v 64.663933 -11.237864 73.863884
v 88.024864 -11.237864 26.904388
v 71.552757 -11.237864 -36.434113
v 32.200512 -5.480728 -75.449539
v -14.581151 -5.480728 -96.805870
v -69.836723 -5.480728 -49.904659
v -74.899940 -5.480728 43.578888
v -20.070580 -5.480728 100.677170
v 65.732262 -5.480728 75.203781
v 89.528366 -5.480728 27.369514
v 72.749413 -5.480728 -37.148876
v 63.493225 -29.094774 -31.666683
v 26.650288 -29.094774 -66.466858
v 78.467064 -29.094774 25.910677
v 58.349598 -29.094774 66.350250
v -16.875475 -29.094774 88.683273
v -64.198280 -29.094774 39.402187
v -59.648483 -29.094774 -44.601864
v -12.716309 -29.094774 -84.438133
v 39.583282 -55.160410 -17.523306
v 11.534786 -55.160410 -44.016647
v 50.112251 -55.160410 22.962667
v 39.617065 -55.160410 44.059799
v -8.882380 -55.160410 58.458443
v -36.910400 -55.160410 29.270584
v -33.609070 -55.160410 -31.682743
v -8.371838 -55.160410 -53.104233
v 17.464342 -70.535616 -4.439357
v 5.066918 -70.535616 -15.790183
v 23.881395 -70.535616 20.235481
v 22.287720 -70.535616 23.439041
v -1.488016 -70.535616 30.497646
v -11.666559 -70.535616 19.897903
v -12.597114 -70.535616 -9.909272
v -2.102857 -70.535616 -21.037121
v 7.864818 -74.687502 6.636406
v 3.807912 -74.687502 2.829845
v 11.664325 -74.687502 11.593567
v 9.894124 -74.687502 17.207554
v 4.448572 -74.687502 18.687046
v -1.395011 -74.687502 15.213602
v -2.340100 -74.687502 8.686756
v -0.368346 -74.687502 2.510000
v 33.162922 -5.480728 -76.878952
v -14.857765 -5.480728 -98.800911
v -71.494667 -5.480728 -50.727226
v -76.637367 -5.480728 44.223972
v -20.579504 -5.480728 102.601601
v 66.924973 -5.480728 76.623024
v 91.333725 -5.480728 27.557215
v 74.271767 -5.480728 -38.049393
v 33.785660 -3.850727 -77.803864
v -15.036751 -3.850727 -100.091820
v -72.567451 -3.850727 -51.259476
v -77.761589 -3.850727 44.641380
v -20.908808 -3.850727 103.846817
v 67.696724 -3.850727 77.541359
v 92.501900 -3.850727 27.678669
v 75.256821 -3.850727 -38.632080
v 33.898884 -2.226351 -77.972031
v -15.069294 -2.226351 -100.326530
v -72.762505 -2.226351 -51.356247
v -77.965996 -2.226351 44.717274
v -20.968681 -2.226351 104.073219
v 67.837044 -2.226351 77.708328
v 92.714294 -2.226351 27.700752
v 75.435921 -2.226351 -38.738022
v 33.445984 -0.996641 -77.299362
v -14.939122 -0.996641 -99.387688
v -71.982300 -0.996641 -50.969158
v -77.148384 -0.996641 44.413704
v -20.729187 -0.996641 103.167610
v 67.275772 -0.996641 77.040451
v 91.864716 -0.996641 27.612423
v 74.719521 -0.996641 -38.314251
v 32.710022 0.000000 -76.206284
v -14.727593 0.000000 -97.862068
v -70.714462 0.000000 -50.340137
v -75.819763 0.000000 43.920406
v -20.340010 0.000000 101.695992
v 66.363701 0.000000 75.955147
v 90.484146 0.000000 27.468887
v 73.555367 0.000000 -37.625622
vt 0.521358 0.000000
vt 0.804029 0.000000
vt 0.973261 0.360650
vt 0.785186 0.839651
vt 0.380687 1.000000
vt 0.009797 0.676766
vt 0.000000 0.383262
vt 0.231174 0.098954
vt 0.521358 0.000000
vt 0.804029 0.000000
vt 0.973261 0.360650
vt 0.785186 0.839651
vt 0.380687 1.000000
vt 0.009797 0.676766
vt 0.000000 0.383262
vt 0.231174 0.098954
vt 0.521358 0.000000
vt 0.804029 0.000000
vt 0.973261 0.360650
vt 0.785186 0.839651
vt 0.380687 1.000000
vt 0.009797 0.676766
vt 0.000000 0.383262
vt 0.231174 0.098954
vt 0.521358 0.000000
vt 0.231174 0.098954
vt 0.000000 0.383262
vt 0.009797 0.676766
vt 0.380687 1.000000
vt 0.785186 0.839651
vt 0.973261 0.360650
vt 0.804029 0.000000
vt 0.521358 0.000000
vt 0.231174 0.098954
vt 0.000000 0.383262
vt 0.009797 0.676766
vt 0.380687 1.000000
vt 0.785186 0.839651
vt 0.973261 0.360650
vt 0.804029 0.000000
vt 0.521358 0.000000
vt 0.231174 0.098954
vt 0.000000 0.383262
vt 0.009797 0.676766
vt 0.380687 1.000000
vt 0.785186 0.839651
vt 0.973261 0.360650
vt 0.804029 0.000000
vt 0.521358 0.000000
vt 0.231174 0.098954
vt 0.000000 0.383262
vt 0.009797 0.676766
vt 0.380687 1.000000
vt 0.785186 0.839651
vt 0.973261 0.360650
vt 0.804029 0.000000
vt 0.521358 0.000000
vt 0.804029 0.000000
vt 0.973261 0.360650
vt 0.785186 0.839651
vt 0.380687 1.000000
vt 0.009797 0.676766
vt 0.000000 0.383262
vt 0.231174 0.098954
vt 0.521358 0.000000
vt 0.804029 0.000000
vt 0.973261 0.360650
vt 0.785186 0.839651
vt 0.380687 1.000000
vt 0.009797 0.676766
vt 0.000000 0.383262
vt 0.231174 0.098954
vt 0.521358 0.000000
vt 0.804029 0.000000
vt 0.973261 0.360650
vt 0.785186 0.839651
vt 0.380687 1.000000
vt 0.009797 0.676766
vt 0.000000 0.383262
vt 0.231174 0.098954
vt 0.521358 0.000000
vt 0.804029 0.000000
vt 0.973261 0.360650
vt 0.785186 0.839651
vt 0.380687 1.000000
vt 0.009797 0.676766
vt 0.000000 0.383262
vt 0.231174 0.098954
vt 0.521358 0.000000
vt 0.804029 0.000000
vt 0.973261 0.360650
vt 0.785186 0.839651
vt 0.380687 1.000000
vt 0.009797 0.676766
vt 0.000000 0.383262
vt 0.231174 0.098954
vn 0.001538 0.999996 -0.002256
vn -0.001105 0.999990 -0.004423
vn -0.004864 0.999986 -0.002100
vn -0.005234 0.999985 0.001737
vn -0.001330 0.999982 0.005896
vn 0.002566 0.999989 0.003828
vn 0.003672 0.999993 0.000235
vn 0.003035 0.999994 -0.001691
vn 0.093074 -0.988506 -0.119133
vn 0.152010 -0.984539 -0.087037
vn 0.210704 -0.976054 -0.054066
vn 0.090144 -0.977490 0.190756
vn -0.008453 -0.978010 0.208385
vn -0.206680 -0.975099 0.080409
vn -0.215880 -0.976370 -0.009914
vn -0.078222 -0.990702 -0.111314
vn 0.519476 -0.402370 -0.753819
vn -0.215353 -0.452043 -0.865610
vn -0.190872 -0.651726 -0.734045
vn 0.479591 -0.510953 -0.713386
vn -0.833374 -0.426369 -0.351706
vn -0.736964 -0.592476 -0.325358
vn -0.859999 -0.427033 0.279364
vn -0.762679 -0.592472 0.259417
vn -0.194086 -0.451840 0.870731
vn -0.167793 -0.649790 0.741363
vn 0.501329 -0.426870 0.752630
vn 0.445637 -0.594898 0.668958
vn 0.907629 -0.416686 0.050829
vn 0.822027 -0.566134 0.061352
vn 0.797374 -0.407136 -0.445460
vn 0.740276 -0.530551 -0.412926
vn 0.683364 -0.620419 -0.384831
vn 0.453182 -0.612259 -0.647893
vn 0.783663 -0.620139 0.036039
vn 0.427744 -0.621646 0.656195
vn -0.162499 -0.643389 0.748094
vn -0.742784 -0.627289 0.234053
vn -0.722690 -0.625403 -0.294262
vn -0.189979 -0.639511 -0.744939
vn 0.557072 -0.768508 -0.314748
vn 0.377361 -0.760798 -0.528000
vn 0.638973 -0.769161 0.010220
vn 0.335877 -0.770751 0.541414
vn -0.121245 -0.792745 0.597374
vn -0.608950 -0.772307 0.180892
vn -0.585573 -0.777066 -0.230807
vn -0.155073 -0.801145 -0.578031
vn 0.424155 -0.873049 -0.240581
vn 0.297994 -0.879956 -0.369969
vn 0.490524 -0.871026 -0.026475
vn 0.236141 -0.871920 0.428943
vn -0.076791 -0.887511 0.454342
vn -0.478533 -0.867199 0.137741
vn -0.465874 -0.877551 -0.113428
vn -0.102153 -0.920327 -0.377575
vn -0.139025 -0.819000 -0.556697
vn 0.303292 -0.842464 -0.445275
vn -0.520390 -0.823710 -0.225157
vn -0.537807 -0.823878 0.178854
vn -0.125916 -0.820697 0.557317
vn 0.317245 -0.822120 0.472731
vn 0.562167 -0.826227 0.036302
vn 0.484353 -0.832265 -0.269698
vn -0.223166 -0.388601 -0.893972
vn 0.523683 -0.366258 -0.769163
vn -0.850834 -0.374529 -0.368524
vn -0.879554 -0.375047 0.292787
vn -0.203243 -0.388150 0.898906
vn 0.517143 -0.373278 0.770212
vn 0.926473 -0.371527 0.060125
vn 0.812309 -0.368310 -0.452220
vn -0.237213 0.201138 -0.950407
vn 0.551386 0.199507 -0.810043
vn -0.899310 0.198391 -0.389722
vn -0.929868 0.198609 0.309679
vn -0.216071 0.201649 0.955328
vn 0.546545 0.197523 0.813802
vn 0.978137 0.197987 0.063634
vn 0.856429 0.198129 -0.476733
vn -0.170471 0.710607 -0.682626
vn 0.412057 0.681406 -0.604893
vn -0.662039 0.692580 -0.286422
vn -0.683932 0.693189 0.227434
vn -0.155265 0.709675 0.687207
vn 0.402661 0.691248 0.600033
vn 0.723538 0.688703 0.046697
vn 0.637052 0.684345 -0.354735
s 1
g polySurface1
usemtl initialShadingGroup
f 81/89/1 82/90/2 83/91/3 84/92/4 85/93/5 86/94/6 87/95/7 88/96/8
f 42/49/9 41/50/10 43/51/11 44/52/12 45/53/13 46/54/14 47/55/15 48/56/16
f 1/1/17 2/2/18 10/18/19 9/17/20
f 2/2/18 3/3/21 11/19/22 10/18/19
f 3/3/21 4/4/23 12/20/24 11/19/22
f 4/4/23 5/5/25 13/21/26 12/20/24
f 5/5/25 6/6/27 14/22/28 13/21/26
f 6/6/27 7/7/29 15/23/30 14/22/28
f 7/7/29 8/8/31 16/24/32 15/23/30
f 8/8/31 1/1/17 9/17/20 16/24/32
f 1/9/17 8/16/31 17/26/33 18/25/34
f 8/16/31 7/15/29 19/27/35 17/26/33
f 7/15/29 6/14/27 20/28/36 19/27/35
f 6/14/27 5/13/25 21/29/37 20/28/36
f 5/13/25 4/12/23 22/30/38 21/29/37
f 4/12/23 3/11/21 23/31/39 22/30/38
f 3/11/21 2/10/18 24/32/40 23/31/39
f 2/10/18 1/9/17 18/25/34 24/32/40
f 18/25/34 17/26/33 25/34/41 26/33/42
f 17/26/33 19/27/35 27/35/43 25/34/41
f 19/27/35 20/28/36 28/36/44 27/35/43
f 20/28/36 21/29/37 29/37/45 28/36/44
f 21/29/37 22/30/38 30/38/46 29/37/45
f 22/30/38 23/31/39 31/39/47 30/38/46
f 23/31/39 24/32/40 32/40/48 31/39/47
f 24/32/40 18/25/34 26/33/42 32/40/48
f 26/33/42 25/34/41 33/42/49 34/41/50
f 25/34/41 27/35/43 35/43/51 33/42/49
f 27/35/43 28/36/44 36/44/52 35/43/51
f 28/36/44 29/37/45 37/45/53 36/44/52
f 29/37/45 30/38/46 38/46/54 37/45/53
f 30/38/46 31/39/47 39/47/55 38/46/54
f 31/39/47 32/40/48 40/48/56 39/47/55
f 32/40/48 26/33/42 34/41/50 40/48/56
f 34/41/50 33/42/49 41/50/10 42/49/9
f 33/42/49 35/43/51 43/51/11 41/50/10
f 35/43/51 36/44/52 44/52/12 43/51/11
f 36/44/52 37/45/53 45/53/13 44/52/12
f 37/45/53 38/46/54 46/54/14 45/53/13
f 38/46/54 39/47/55 47/55/15 46/54/14
f 39/47/55 40/48/56 48/56/16 47/55/15
f 40/48/56 34/41/50 42/49/9 48/56/16
f 9/17/20 10/18/19 50/58/57 49/57/58
f 10/18/19 11/19/22 51/59/59 50/58/57
f 11/19/22 12/20/24 52/60/60 51/59/59
f 12/20/24 13/21/26 53/61/61 52/60/60
f 13/21/26 14/22/28 54/62/62 53/61/61
f 14/22/28 15/23/30 55/63/63 54/62/62
f 15/23/30 16/24/32 56/64/64 55/63/63
f 16/24/32 9/17/20 49/57/58 56/64/64
f 49/57/58 50/58/57 58/66/65 57/65/66
f 50/58/57 51/59/59 59/67/67 58/66/65
f 51/59/59 52/60/60 60/68/68 59/67/67
f 52/60/60 53/61/61 61/69/69 60/68/68
f 53/61/61 54/62/62 62/70/70 61/69/69
f 54/62/62 55/63/63 63/71/71 62/70/70
f 55/63/63 56/64/64 64/72/72 63/71/71
f 56/64/64 49/57/58 57/65/66 64/72/72
f 57/65/66 58/66/65 66/74/73 65/73/74
f 58/66/65 59/67/67 67/75/75 66/74/73
f 59/67/67 60/68/68 68/76/76 67/75/75
f 60/68/68 61/69/69 69/77/77 68/76/76
f 61/69/69 62/70/70 70/78/78 69/77/77
f 62/70/70 63/71/71 71/79/79 70/78/78
f 63/71/71 64/72/72 72/80/80 71/79/79
f 64/72/72 57/65/66 65/73/74 72/80/80
f 65/73/74 66/74/73 74/82/81 73/81/82
f 66/74/73 67/75/75 75/83/83 74/82/81
f 67/75/75 68/76/76 76/84/84 75/83/83
f 68/76/76 69/77/77 77/85/85 76/84/84
f 69/77/77 70/78/78 78/86/86 77/85/85
f 70/78/78 71/79/79 79/87/87 78/86/86
f 71/79/79 72/80/80 80/88/88 79/87/87
f 72/80/80 65/73/74 73/81/82 80/88/88
f 73/81/82 74/82/81 82/90/2 81/89/1
f 74/82/81 75/83/83 83/91/3 82/90/2
f 75/83/83 76/84/84 84/92/4 83/91/3
f 76/84/84 77/85/85 85/93/5 84/92/4
f 77/85/85 78/86/86 86/94/6 85/93/5
f 78/86/86 79/87/87 87/95/7 86/94/6
f 79/87/87 80/88/88 88/96/8 87/95/7
f 80/88/88 73/81/82 81/89/1 88/96/8
