# This file uses feet as units for non-parametric coordinates.

mtllib rock1.mtl
g default
v -18.804361 4.865630 -10.268293
v -20.982798 4.865630 11.419904
v -1.179802 4.865630 25.232639
v 15.906050 4.865630 14.273068
v 12.322245 4.865630 0.980791
v 15.661065 4.865630 -13.374331
v 2.145172 4.865630 -25.037346
v -17.475254 12.037198 -9.492363
v -19.507652 12.037198 10.741909
v -1.001763 12.037198 23.649904
v 14.991874 12.037198 13.621671
v 11.520417 12.037198 1.026000
v 14.718876 12.037198 -12.725675
v 2.266635 12.037198 -23.410048
v -14.132959 18.442982 -7.053725
v -15.706383 18.442982 8.611069
v -1.265905 18.442982 18.683411
v 11.704376 18.442982 11.599068
v 8.565035 18.442982 1.190674
v 11.327639 18.442982 -10.687038
v 1.813476 18.442982 -18.295681
v -11.758190 23.244130 -5.501865
v -13.039539 23.244130 7.255079
v -1.152433 23.244130 15.546425
v 9.782770 23.244130 10.372490
v 6.797710 23.244130 1.356983
v 9.297261 23.244130 -9.389725
v 1.772957 23.244130 -15.041085
v -8.666872 26.062291 -3.063349
v -9.645716 26.062291 6.681895
v -0.361236 26.062291 13.157887
v 8.164740 26.062291 9.992461
v 5.276342 26.062291 2.430820
v 7.519809 26.062291 -7.214847
v 2.362727 26.062291 -10.839022
v 2.457506 0.000000 -20.852865
v -15.386657 0.000000 -8.273045
v 13.238304 0.000000 -11.706356
v 10.260401 0.000000 1.097041
v 13.555330 0.000000 12.598046
v -0.721986 0.000000 21.162748
v -17.189568 0.000000 9.676489
vt 0.333438 0.000000
vt 0.766349 0.000000
vt 1.000000 0.418750
vt 0.729744 0.931433
vt 0.480880 0.767574
vt 0.184339 0.867159
vt 0.000000 0.384675
vt 0.333438 0.000000
vt 0.766349 0.000000
vt 1.000000 0.418750
vt 0.729744 0.931433
vt 0.480880 0.767574
vt 0.184339 0.867159
vt 0.000000 0.384675
vt 0.333438 0.000000
vt 0.766349 0.000000
vt 1.000000 0.418750
vt 0.729744 0.931433
vt 0.480880 0.767574
vt 0.184339 0.867159
vt 0.000000 0.384675
vt 0.333438 0.000000
vt 0.766349 0.000000
vt 1.000000 0.418750
vt 0.729744 0.931433
vt 0.480880 0.767574
vt 0.184339 0.867159
vt 0.000000 0.384675
vt 0.333438 0.000000
vt 0.766349 0.000000
vt 1.000000 0.418750
vt 0.729744 0.931433
vt 0.480880 0.767574
vt 0.184339 0.867159
vt 0.000000 0.384675
vt 0.333438 0.000000
vt 0.766349 0.000000
vt 1.000000 0.418750
vt 0.729744 0.931433
vt 0.480880 0.767574
vt 0.184339 0.867159
vt 0.000000 0.384675
vt 0.333438 0.000000
vt 0.000000 0.384675
vt 0.184339 0.867159
vt 0.480880 0.767574
vt 0.729744 0.931433
vt 1.000000 0.418750
vt 0.766349 0.000000
vn -0.127539 0.988502 -0.081222
vn -0.136017 0.987565 0.078834
vn -0.018213 0.988716 0.148688
vn 0.130498 0.988437 0.077219
vn 0.093548 0.995580 -0.008310
vn 0.135021 0.990603 -0.021810
vn -0.026859 0.988663 -0.147729
vn -0.127285 -0.988530 -0.081279
vn -0.012398 -0.987347 -0.158090
vn 0.109745 -0.993311 -0.035904
vn 0.076558 -0.997065 -0.000984
vn 0.113789 -0.991861 0.057137
vn -0.010797 -0.988011 0.154009
vn -0.138999 -0.987878 0.069116
vn -0.833222 -0.155367 -0.530662
vn -0.884916 -0.153491 0.439731
vn -0.830248 0.366486 0.419972
vn -0.784053 0.356214 -0.508304
vn -0.095663 -0.142883 0.985106
vn -0.068159 0.370062 0.926503
vn 0.853077 -0.122692 0.507154
vn 0.819295 0.335721 0.464809
vn 0.994738 -0.102077 -0.008733
vn 0.965747 0.259282 -0.010279
vn 0.916362 -0.117234 -0.382802
vn 0.882683 0.321194 -0.343083
vn -0.118260 -0.145283 -0.982297
vn -0.085187 0.382606 -0.919976
vn -0.748229 0.552335 0.367531
vn -0.713866 0.531475 -0.455992
vn -0.094381 0.568606 0.817178
vn 0.740428 0.535753 0.405875
vn 0.925087 0.379470 -0.014734
vn 0.814552 0.508221 -0.279673
vn -0.112194 0.591427 -0.798515
vn -0.722372 0.602239 0.339834
vn -0.651161 0.621512 -0.435560
vn -0.125274 0.551090 0.824989
vn 0.764321 0.509132 0.395726
vn 0.924610 0.380850 -0.007087
vn 0.812089 0.515913 -0.272663
vn -0.141809 0.639936 -0.755230
s 1
g polySurface1
usemtl initialShadingGroup
f 29/36/1 30/37/2 31/38/3 32/39/4 33/40/5 34/41/6 35/42/7
f 37/43/8 36/44/9 38/45/10 39/46/11 40/47/12 41/48/13 42/49/14
f 1/1/15 2/2/16 9/16/17 8/15/18
f 2/2/16 3/3/19 10/17/20 9/16/17
f 3/3/19 4/4/21 11/18/22 10/17/20
f 4/4/21 5/5/23 12/19/24 11/18/22
f 5/5/23 6/6/25 13/20/26 12/19/24
f 6/6/25 7/7/27 14/21/28 13/20/26
f 7/7/27 1/1/15 8/15/18 14/21/28
f 8/15/18 9/16/17 16/23/29 15/22/30
f 9/16/17 10/17/20 17/24/31 16/23/29
f 10/17/20 11/18/22 18/25/32 17/24/31
f 11/18/22 12/19/24 19/26/33 18/25/32
f 12/19/24 13/20/26 20/27/34 19/26/33
f 13/20/26 14/21/28 21/28/35 20/27/34
f 14/21/28 8/15/18 15/22/30 21/28/35
f 15/22/30 16/23/29 23/30/36 22/29/37
f 16/23/29 17/24/31 24/31/38 23/30/36
f 17/24/31 18/25/32 25/32/39 24/31/38
f 18/25/32 19/26/33 26/33/40 25/32/39
f 19/26/33 20/27/34 27/34/41 26/33/40
f 20/27/34 21/28/35 28/35/42 27/34/41
f 21/28/35 15/22/30 22/29/37 28/35/42
f 22/29/37 23/30/36 30/37/2 29/36/1
f 23/30/36 24/31/38 31/38/3 30/37/2
f 24/31/38 25/32/39 32/39/4 31/38/3
f 25/32/39 26/33/40 33/40/5 32/39/4
f 26/33/40 27/34/41 34/41/6 33/40/5
f 27/34/41 28/35/42 35/42/7 34/41/6
f 28/35/42 22/29/37 29/36/1 35/42/7
f 1/8/15 7/14/27 36/44/9 37/43/8
f 7/14/27 6/13/25 38/45/10 36/44/9
f 6/13/25 5/12/23 39/46/11 38/45/10
f 5/12/23 4/11/21 40/47/12 39/46/11
f 4/11/21 3/10/19 41/48/13 40/47/12
f 3/10/19 2/9/16 42/49/14 41/48/13
f 2/9/16 1/8/15 37/43/8 42/49/14
