# This file uses feet as units for non-parametric coordinates.

mtllib rock3.mtl
g default
v -20.003603 6.711993 0.362413
v -16.141275 6.711993 14.305840
v 3.324893 6.711993 19.632540
v 20.055141 6.711993 19.765575
v 27.309170 6.711993 3.625849
v 24.104837 6.711993 -10.981236
v 9.311577 6.711993 -20.352451
v -11.600772 6.711993 -12.375610
v -19.944286 16.764360 0.900790
v -13.831574 16.764360 14.204386
v 3.819771 16.764360 19.632450
v 17.896280 16.764360 19.758244
v 24.043461 16.764360 4.387940
v 22.372540 16.764360 -11.397839
v 9.508437 16.764360 -21.023132
v -10.625232 16.764360 -12.776709
v -17.197176 26.287162 1.362013
v -12.099298 26.287162 12.456944
v 4.190929 26.287162 17.466442
v 16.277134 26.287162 17.574448
v 21.594179 26.287162 4.279801
v 20.096119 26.287162 -9.872898
v 9.159554 26.287162 -18.055956
v -9.048027 26.287162 -10.598424
v -14.793455 35.786422 1.796578
v -10.583557 35.786422 10.958925
v 4.515692 35.786422 15.602179
v 14.860381 35.786422 15.694621
v 19.451057 35.786422 4.216174
v 18.104252 35.786422 -8.507582
v 8.854280 35.786422 -15.428682
v -7.667974 35.786422 -8.661431
v -11.130643 44.369636 2.103847
v -8.273857 44.369636 8.321306
v 5.010570 44.369636 12.406473
v 12.701519 44.369636 12.475202
v 16.185349 44.369636 3.764293
v 15.069025 44.369636 -6.782025
v 8.389102 44.369636 -11.780140
v -5.565035 44.369636 -6.064749
v -5.750887 50.714492 2.555151
v -4.881485 50.714492 4.447305
v 5.737421 50.714492 7.712783
v 9.530690 50.714492 7.746680
v 11.388840 50.714492 3.100595
v 10.611034 50.714492 -4.247612
v 7.705871 50.714492 -6.421341
v -2.476343 50.714492 -2.250870
v -9.168529 0.000000 -9.343336
v -15.988850 0.000000 0.995728
v 8.897860 0.000000 -16.234608
v 20.821388 0.000000 -8.681308
v 23.433105 0.000000 3.224315
v 17.670155 0.000000 16.046494
v 3.836425 0.000000 15.936490
v -13.136795 0.000000 11.291959
vt 0.198279 0.000000
vt 0.554023 0.000000
vt 0.823927 0.302177
vt 0.965595 0.603375
vt 0.697962 0.885166
vt 0.357439 1.000000
vt 0.020476 0.816912
vt 0.000000 0.329288
vt 0.198279 0.000000
vt 0.554023 0.000000
vt 0.823927 0.302177
vt 0.965595 0.603375
vt 0.697962 0.885166
vt 0.357439 1.000000
vt 0.020476 0.816912
vt 0.000000 0.329288
vt 0.198279 0.000000
vt 0.554023 0.000000
vt 0.823927 0.302177
vt 0.965595 0.603375
vt 0.697962 0.885166
vt 0.357439 1.000000
vt 0.020476 0.816912
vt 0.000000 0.329288
vt 0.198279 0.000000
vt 0.554023 0.000000
vt 0.823927 0.302177
vt 0.965595 0.603375
vt 0.697962 0.885166
vt 0.357439 1.000000
vt 0.020476 0.816912
vt 0.000000 0.329288
vt 0.198279 0.000000
vt 0.554023 0.000000
vt 0.823927 0.302177
vt 0.965595 0.603375
vt 0.697962 0.885166
vt 0.357439 1.000000
vt 0.020476 0.816912
vt 0.000000 0.329288
vt 0.198279 0.000000
vt 0.554023 0.000000
vt 0.823927 0.302177
vt 0.965595 0.603375
vt 0.697962 0.885166
vt 0.357439 1.000000
vt 0.020476 0.816912
vt 0.000000 0.329288
vt 0.198279 0.000000
vt 0.554023 0.000000
vt 0.823927 0.302177
vt 0.965595 0.603375
vt 0.697962 0.885166
vt 0.357439 1.000000
vt 0.020476 0.816912
vt 0.000000 0.329288
vt 0.198279 0.000000
vt 0.000000 0.329288
vt 0.020476 0.816912
vt 0.357439 1.000000
vt 0.697962 0.885166
vt 0.965595 0.603375
vt 0.823927 0.302177
vt 0.554023 0.000000
vn -0.264249 0.962323 -0.064093
vn -0.160314 0.944572 0.286502
vn -0.060668 0.955693 0.288046
vn 0.178084 0.957693 0.226074
vn 0.284629 0.958123 0.031402
vn 0.269254 0.955143 -0.123306
vn -0.029179 0.931508 -0.362548
vn -0.198746 0.937180 -0.286693
vn -0.121025 -0.992411 -0.021763
vn -0.083906 -0.989240 -0.119854
vn 0.005287 -0.985619 -0.168903
vn 0.106347 -0.991134 -0.079650
vn 0.125572 -0.991951 0.016300
vn 0.085723 -0.987790 0.130084
vn -0.019040 -0.991987 0.124897
vn -0.094958 -0.988249 0.119780
vn -0.975335 -0.149270 -0.162602
vn -0.638976 -0.166331 0.751028
vn -0.595337 0.152675 0.788838
vn -0.976434 0.173834 -0.127903
vn -0.155901 -0.195517 0.968229
vn -0.163505 0.116557 0.979633
vn 0.597546 -0.124009 0.792187
vn 0.550977 0.194396 0.811563
vn 0.991237 -0.052255 0.121319
vn 0.959007 0.244974 0.142457
vn 0.829111 -0.122091 -0.545590
vn 0.826087 0.189804 -0.530618
vn 0.033924 -0.220064 -0.974895
vn 0.038509 0.126952 -0.991161
vn -0.580179 -0.199274 -0.789735
vn -0.577075 0.129075 -0.806427
vn -0.585736 0.234428 0.775859
vn -0.955477 0.267329 -0.124896
vn -0.173234 0.211284 0.961951
vn 0.582678 0.260454 0.769838
vn 0.962626 0.235151 0.134372
vn 0.842807 0.262661 -0.469773
vn 0.025235 0.285194 -0.958138
vn -0.573255 0.258889 -0.777403
vn -0.555153 0.282187 0.782417
vn -0.942622 0.304660 -0.136548
vn -0.176764 0.264930 0.947928
vn 0.575079 0.306302 0.758593
vn 0.951747 0.278370 0.129181
vn 0.841725 0.298401 -0.449950
vn 0.005489 0.316203 -0.948676
vn -0.563708 0.293504 -0.772068
vn -0.480112 0.461127 0.746227
vn -0.869141 0.467921 -0.160141
vn -0.173518 0.449414 0.876310
vn 0.533799 0.486761 0.691464
vn 0.886748 0.449152 0.109269
vn 0.792568 0.460658 -0.399539
vn -0.027222 0.473247 -0.880509
vn -0.516653 0.454280 -0.725741
s 1
g polySurface1
usemtl initialShadingGroup
f 41/49/1 42/50/2 43/51/3 44/52/4 45/53/5 46/54/6 47/55/7 48/56/8
f 50/57/9 49/58/10 51/59/11 52/60/12 53/61/13 54/62/14 55/63/15 56/64/16
f 1/1/17 2/2/18 10/18/19 9/17/20
f 2/2/18 3/3/21 11/19/22 10/18/19
f 3/3/21 4/4/23 12/20/24 11/19/22
f 4/4/23 5/5/25 13/21/26 12/20/24
f 5/5/25 6/6/27 14/22/28 13/21/26
f 6/6/27 7/7/29 15/23/30 14/22/28
f 7/7/29 8/8/31 16/24/32 15/23/30
f 8/8/31 1/1/17 9/17/20 16/24/32
f 9/17/20 10/18/19 18/26/33 17/25/34
f 10/18/19 11/19/22 19/27/35 18/26/33
f 11/19/22 12/20/24 20/28/36 19/27/35
f 12/20/24 13/21/26 21/29/37 20/28/36
f 13/21/26 14/22/28 22/30/38 21/29/37
f 14/22/28 15/23/30 23/31/39 22/30/38
f 15/23/30 16/24/32 24/32/40 23/31/39
f 16/24/32 9/17/20 17/25/34 24/32/40
f 17/25/34 18/26/33 26/34/41 25/33/42
f 18/26/33 19/27/35 27/35/43 26/34/41
f 19/27/35 20/28/36 28/36/44 27/35/43
f 20/28/36 21/29/37 29/37/45 28/36/44
f 21/29/37 22/30/38 30/38/46 29/37/45
f 22/30/38 23/31/39 31/39/47 30/38/46
f 23/31/39 24/32/40 32/40/48 31/39/47
f 24/32/40 17/25/34 25/33/42 32/40/48
f 25/33/42 26/34/41 34/42/49 33/41/50
f 26/34/41 27/35/43 35/43/51 34/42/49
f 27/35/43 28/36/44 36/44/52 35/43/51
f 28/36/44 29/37/45 37/45/53 36/44/52
f 29/37/45 30/38/46 38/46/54 37/45/53
f 30/38/46 31/39/47 39/47/55 38/46/54
f 31/39/47 32/40/48 40/48/56 39/47/55
f 32/40/48 25/33/42 33/41/50 40/48/56
f 33/41/50 34/42/49 42/50/2 41/49/1
f 34/42/49 35/43/51 43/51/3 42/50/2
f 35/43/51 36/44/52 44/52/4 43/51/3
f 36/44/52 37/45/53 45/53/5 44/52/4
f 37/45/53 38/46/54 46/54/6 45/53/5
f 38/46/54 39/47/55 47/55/7 46/54/6
f 39/47/55 40/48/56 48/56/8 47/55/7
f 40/48/56 33/41/50 41/49/1 48/56/8
f 1/9/17 8/16/31 49/58/10 50/57/9
f 8/16/31 7/15/29 51/59/11 49/58/10
f 7/15/29 6/14/27 52/60/12 51/59/11
f 6/14/27 5/13/25 53/61/13 52/60/12
f 5/13/25 4/12/23 54/62/14 53/61/13
f 4/12/23 3/11/21 55/63/15 54/62/14
f 3/11/21 2/10/18 56/64/16 55/63/15
f 2/10/18 1/9/17 50/57/9 56/64/16
